<svg xmlns="http://www.w3.org/2000/svg" version="1.1" xmlns:xlink="http://www.w3.org/1999/xlink" xmlns:svgjs="http://svgjs.dev/svgjs" width="100%" height="100%" viewBox="0 0 1000 600"><rect width="1000" height="600" x="0" y="0" fill="#1c1c1c"/><g><rect width="333.3333333333333" height="333.3333333333333" rx="13.333333333333334" ry="13.333333333333334" y="247.41555813869087" fill="#834fd6" transform="matrix(0.5550786853850329,0,0,0.5550786853850329,0,70.15180391907388)" x="225.19335937499997"/><path d="M259.7072184147466 339.08222070248814L318.38211094327545 339.08222070248814Q333.84172148741476 339.08222070248814 345.4513517995194 343.29033863052604Q357.060982111624 347.46861175056375 363.38808140768106 354.57167605462774Q369.74502551173833 361.6448955506915 372.75935111976554 369.70299371076413Q375.7438319197924 377.76109187083676 375.7438319197924 386.80406869491827Q375.7438319197924 395.8172007109995 372.75935111976554 403.8752988710721Q369.74502551173833 411.93339703114475 363.38808140768106 419.03646133520874Q357.060982111624 426.1096808312725 345.4513517995194 430.31779875931045Q333.84172148741476 434.4960718793481 318.38211094327545 434.4960718793481L318.38211094327545 434.4960718793481L279.28541246292303 434.4960718793481L279.28541246292303 489.08222571184007L259.7072184147466 489.08222571184007L259.7072184147466 339.08222070248814ZM279.28541246292303 416.0221357271816L316.44219842325793 416.0221357271816Q338.37813230345563 416.0221357271816 347.2718850875358 407.635744679106Q356.19548267961625 399.24935363103043 356.19548267961625 386.80406869491827Q356.19548267961625 374.3289389508058 347.2718850875358 365.94254790273027Q338.37813230345563 357.5860016626549 316.44219842325793 357.5860016626549L316.44219842325793 357.5860016626549L279.28541246292303 357.5860016626549L279.28541246292303 416.0221357271816ZM504.4644888249526 405.06909119108286L504.4644888249526 339.08222070248814L524.0128380651288 339.08222070248814L524.0128380651288 489.08222571184007L504.4644888249526 489.08222571184007L504.4644888249526 423.3341136872475L423.0180077922185 423.3341136872475L423.0180077922185 489.08222571184007L403.4696585520423 489.08222571184007L403.4696585520423 339.08222070248814L423.0180077922185 339.08222070248814L423.0180077922185 405.06909119108286L504.4644888249526 405.06909119108286Z " fill="#dedede" transform="matrix(0.5550786853850329,0,0,0.5550786853850329,0,70.15180391907388)"/><path d="M641.8600199443773 344.02208329429834L684.0851034564199 344.02208329429834Q695.2105323777007 344.02208329429834 703.5653428996665 347.05043363773575Q711.9201534216321 350.057306319163 716.4734177677934 355.1689898775893Q721.0481597759648 360.25919577400543 723.2174036389944 366.058164516758Q725.3651698400139 371.85713325951053 725.3651698400139 378.36486484859944Q725.3651698400139 384.85111877567823 723.2174036389944 390.6500875184308Q721.0481597759648 396.44905626118333 716.4734177677934 401.56073981960964Q711.9201534216321 406.6509457160258 703.5653428996665 409.6792960594632Q695.2105323777007 412.6861687408904 684.0851034564199 412.6861687408904L684.0851034564199 412.6861687408904L655.949366223065 412.6861687408904L655.949366223065 451.96881255753635L641.8600199443773 451.96881255753635L641.8600199443773 344.02208329429834ZM655.949366223065 399.39149595658L682.6890554257573 399.39149595658Q698.4751370032503 399.39149595658 704.8754802822883 393.3562729317153Q711.2973012233364 387.32104990685065 711.2973012233364 378.36486484859944Q711.2973012233364 369.3872021283381 704.8754802822883 363.35197910347347Q698.4751370032503 357.33823374061893 682.6890554257573 357.33823374061893L682.6890554257573 357.33823374061893L655.949366223065 357.33823374061893L655.949366223065 399.39149595658ZM743.921869816822 390.1131459681759L743.921869816822 377.4413253821611Q757.388363897214 371.5564459913678 772.7663698965134 371.5564459913678Q788.1658535578229 371.5564459913678 796.3488427837071 380.53410871162913Q804.5533096716015 389.4902937698803 804.5533096716015 402.0117707218237L804.5533096716015 402.0117707218237L804.5533096716015 451.96881255753635L792.1821763537293 451.96881255753635L790.485441054924 442.06761037083663L790.0129324906995 442.06761037083663Q778.8875035694189 453.51520422227037 761.4046866931205 453.51520422227037L761.4046866931205 453.51520422227037Q750.8806323081251 453.51520422227037 743.5352719006385 447.17929392926294Q736.189911493152 440.8433836362555 736.189911493152 429.8468206870359Q736.189911493152 418.8717353998265 745.2534848614541 412.0633165425948Q754.2955805677459 405.2763753473733 771.7569197820342 405.2763753473733L771.7569197820342 405.2763753473733L790.485441054924 405.2763753473733L790.485441054924 404.030670950782Q790.485441054924 393.8287814959396 785.4596681445385 389.3399501358089Q780.4338952341529 384.85111877567823 768.0627619162808 384.85111877567823Q755.6916285984087 384.85111877567823 744.8668869452706 390.1131459681759L744.8668869452706 390.1131459681759L743.921869816822 390.1131459681759ZM790.485441054924 429.5461334188932L790.485441054924 429.5461334188932L790.485441054924 416.5521479027255L773.6254763769211 416.5521479027255Q750.2792577718396 416.5521479027255 750.2792577718396 428.85884823456695Q750.2792577718396 441.14407090439823 766.666713885618 441.14407090439823L766.666713885618 441.14407090439823Q773.4751327428498 441.14407090439823 779.8110430358572 437.8150332928181Q786.1469533288646 434.48599568123797 790.485441054924 429.5461334188932ZM869.952790492644 373.1028376561018L869.952790492644 385.1732837058312L847.5301113540008 385.1732837058312L847.5301113540008 431.8657209159942Q847.5301113540008 438.3519748430729 851.095403247693 439.898366507807L851.095403247693 439.898366507807Q854.0378429430898 441.14407090439823 858.6770179372918 441.14407090439823Q863.3161929314938 441.14407090439823 868.8789073921341 438.6741397732259L868.8789073921341 438.6741397732259L869.952790492644 438.6741397732259L869.952790492644 450.1217336246596Q863.4665365655651 453.51520422227037 856.0352655100378 453.51520422227037L856.0352655100378 453.51520422227037Q833.4622427373233 453.51520422227037 833.4622427373233 433.1114253125855L833.4622427373233 433.1114253125855L833.4622427373233 385.1732837058312L818.7715219223501 385.1732837058312L818.7715219223501 384.2282665773826L847.5301113540008 356.0925293440277L847.5301113540008 373.1028376561018L869.952790492644 373.1028376561018ZM931.2070825457188 371.5564459913678L931.2070825457188 371.5564459913678L932.4313092803 371.5564459913678L932.4313092803 385.0014624097496L931.2070825457188 385.0014624097496Q922.0790761913861 385.0014624097496 914.1967742336449 388.5667543034419Q906.2929946138931 392.13204619713423 901.8256409157727 398.4679564901416L901.8256409157727 398.4679564901416L901.8256409157727 451.96881255753635L887.7362946370849 451.96881255753635L887.7362946370849 373.1028376561018L900.1074279549571 373.1028376561018L901.8256409157727 383.0040398428015L901.8256409157727 385.32362733990254L902.1263281839153 385.32362733990254Q913.2517571051962 371.5564459913678 931.2070825457188 371.5564459913678ZM962.2852594744704 451.96881255753635L948.2173908577929 451.96881255753635L948.2173908577929 373.1028376561018L962.2852594744704 373.1028376561018L962.2852594744704 451.96881255753635ZM947.7448822935687 341.25146489498326L962.9081116727662 341.25146489498326L962.9081116727662 356.3932166121704L947.7448822935687 356.3932166121704L947.7448822935687 341.25146489498326ZM1050.2792407302377 392.43273346527695L1049.656388531942 392.43273346527695Q1038.2087946805086 384.70077514160687 1024.828211248157 384.70077514160687Q1011.4476278158058 384.70077514160687 1003.8874907882173 392.34682281723616Q996.3058760986187 400.0143481548756 996.3058760986187 412.53582510681906Q996.3058760986187 425.0573020587625 1003.8874907882173 432.72482739640196Q1011.4476278158058 440.37087507203125 1024.828211248157 440.37087507203125Q1038.2087946805086 440.37087507203125 1049.656388531942 432.6389167483612L1049.656388531942 432.6389167483612L1050.2792407302377 432.6389167483612L1050.2792407302377 445.93358953267165Q1037.4355988481416 453.51520422227037 1023.5180738655354 453.51520422227037L1023.5180738655354 453.51520422227037Q1006.3574219193897 453.51520422227037 994.2869758696604 442.3897753009896Q982.2380074819414 431.24286871769857 982.2380074819414 412.53582510681906Q982.2380074819414 393.8287814959396 994.2869758696604 382.6818749126486Q1006.3574219193897 371.5564459913678 1023.5180738655354 371.5564459913678L1023.5180738655354 371.5564459913678Q1037.4355988481416 371.5564459913678 1050.2792407302377 379.1380606809665L1050.2792407302377 379.1380606809665L1050.2792407302377 392.43273346527695ZM1137.8007134217805 373.1028376561018L1105.7775193645807 404.80386678314903L1141.344527653463 451.96881255753635L1124.033532073246 451.96881255753635L1096.1984821080337 414.7050689698487L1095.7259735438097 414.7050689698487L1084.299857354386 426.15266282128243L1084.299857354386 451.96881255753635L1070.2105110756984 451.96881255753635L1070.2105110756984 339.08222103195357L1084.299857354386 339.08222103195357L1084.299857354386 408.1973373807598L1084.7508882566003 408.1973373807598L1118.9218485148199 373.1028376561018L1137.8007134217805 373.1028376561018ZM1270.3178880246815 391.50919399883855L1270.3178880246815 344.02208329429834L1284.385756641359 344.02208329429834L1284.385756641359 451.96881255753635L1270.3178880246815 451.96881255753635L1270.3178880246815 404.65352314907767L1211.7053483988602 404.65352314907767L1211.7053483988602 451.96881255753635L1197.6374797821827 451.96881255753635L1197.6374797821827 344.02208329429834L1211.7053483988602 344.02208329429834L1211.7053483988602 391.50919399883855L1270.3178880246815 391.50919399883855ZM1306.8084357800021 412.53582510681906Q1306.8084357800021 394.12946876408233 1317.6331774331402 382.8536962087301Q1328.4579190862783 371.5564459913678 1346.3273338787603 371.5564459913678Q1364.196748671242 371.5564459913678 1375.0859233104106 382.8536962087301Q1385.9965756115894 394.12946876408233 1385.9965756115894 412.53582510681906Q1385.9965756115894 430.94218144955585 1375.0859233104106 442.217954004908Q1364.196748671242 453.51520422227037 1346.3273338787603 453.51520422227037Q1328.4579190862783 453.51520422227037 1317.6331774331402 442.217954004908Q1306.8084357800021 430.94218144955585 1306.8084357800021 412.53582510681906ZM1328.543829734319 433.64836686284036Q1336.1898774099482 440.671562340174 1346.4132445268006 440.671562340174Q1356.6151339816433 440.671562340174 1364.2611816572726 433.64836686284036Q1371.9287069949119 426.6036937234965 1371.9287069949119 412.4499144587783Q1371.9287069949119 398.31761285607024 1364.2611816572726 391.3588503647672Q1356.6151339816433 384.40008787346414 1346.4132445268006 384.40008787346414Q1336.1898774099482 384.40008787346414 1328.543829734319 391.3588503647672Q1320.8977820586897 398.31761285607024 1320.8977820586897 412.4499144587783Q1320.8977820586897 426.6036937234965 1328.543829734319 433.64836686284036ZM1464.7122068789527 383.0040398428015L1466.408942177758 373.1028376561018L1478.7800754956302 373.1028376561018L1478.7800754956302 448.5753419599256Q1478.7800754956302 468.0555814031721 1469.3513818731549 478.55815812615725Q1459.901210588669 489.0822125111526 1442.0532734581975 489.0822125111526Q1424.1838586657154 489.0822125111526 1409.4931378507422 481.19991055341114L1409.4931378507422 481.19991055341114L1409.4931378507422 467.28238557080505L1410.2663336831092 467.28238557080505Q1423.4106628333484 475.7875397268421 1441.043823343718 475.7875397268421L1441.043823343718 475.7875397268421Q1464.7122068789527 475.7875397268421 1464.7122068789527 450.5727645268737L1464.7122068789527 450.5727645268737L1464.7122068789527 440.5212187061026L1464.2396983147282 440.5212187061026Q1453.5653002956615 451.96881255753635 1438.7242358466174 451.96881255753635Q1423.8831713975728 451.96881255753635 1412.3496668980983 441.3803251865104Q1400.837640060634 430.7918378154845 1400.837640060634 411.7626292744521Q1400.837640060634 392.7334207334197 1412.3496668980983 382.1449333623937Q1423.8831713975728 371.5564459913678 1438.7242358466174 371.5564459913678Q1453.5653002956615 371.5564459913678 1464.2396983147282 383.0040398428015L1464.2396983147282 383.0040398428015L1464.7122068789527 383.0040398428015ZM1464.7122068789527 427.69905448601645L1464.7122068789527 427.69905448601645L1464.7122068789527 395.82620406288765Q1453.5653002956615 384.40008787346414 1441.580764893973 384.40008787346414Q1429.5962294922847 384.40008787346414 1422.250869084798 391.42328335079776Q1414.9055086773114 398.4679564901416 1414.9055086773114 411.7626292744521Q1414.9055086773114 425.0573020587625 1422.250869084798 432.10197519810635Q1429.5962294922847 439.12517067543996 1441.580764893973 439.12517067543996Q1453.5653002956615 439.12517067543996 1464.7122068789527 427.69905448601645ZM1562.2852253912665 383.0040398428015L1563.981960690072 373.1028376561018L1576.353094007944 373.1028376561018L1576.353094007944 448.5753419599256Q1576.353094007944 468.0555814031721 1566.9244003854687 478.55815812615725Q1557.4957067629934 489.0822125111526 1539.6262919705114 489.0822125111526Q1521.7568771780293 489.0822125111526 1507.0661563630565 481.19991055341114L1507.0661563630565 481.19991055341114L1507.0661563630565 467.28238557080505L1507.8393521954235 467.28238557080505Q1520.9836813456623 475.7875397268421 1538.6168418560324 475.7875397268421L1538.6168418560324 475.7875397268421Q1562.2852253912665 475.7875397268421 1562.2852253912665 450.5727645268737L1562.2852253912665 450.5727645268737L1562.2852253912665 440.5212187061026L1561.8127168270425 440.5212187061026Q1551.1383188079758 451.96881255753635 1536.2972543589312 451.96881255753635Q1521.4561899098867 451.96881255753635 1509.9441630724223 441.3803251865104Q1498.4106585729483 430.7918378154845 1498.4106585729483 411.7626292744521Q1498.4106585729483 392.7334207334197 1509.9441630724223 382.1449333623937Q1521.4561899098867 371.5564459913678 1536.2972543589312 371.5564459913678Q1551.1383188079758 371.5564459913678 1561.8127168270425 383.0040398428015L1561.8127168270425 383.0040398428015L1562.2852253912665 383.0040398428015ZM1562.2852253912665 427.69905448601645L1562.2852253912665 427.69905448601645L1562.2852253912665 395.82620406288765Q1551.1383188079758 384.40008787346414 1539.153783406287 384.40008787346414Q1527.1692480045986 384.40008787346414 1519.823887597112 391.42328335079776Q1512.4785271896253 398.4679564901416 1512.4785271896253 411.7626292744521Q1512.4785271896253 425.0573020587625 1519.823887597112 432.10197519810635Q1527.1692480045986 439.12517067543996 1539.153783406287 439.12517067543996Q1551.1383188079758 439.12517067543996 1562.2852253912665 427.69905448601645Z " fill="#dedede" transform="matrix(0.5550786853850329,0,0,0.5550786853850329,0,70.15180391907388)"/></g></svg>